solid unnamed
facet normal 1 -0 0
    outer loop
        vertex 25 -0 5
        vertex 25 -25 0
        vertex 25 25 5
    endloop
endfacet
facet normal 1 0 0
    outer loop
        vertex 25 25 5
        vertex 25 -25 0
        vertex 25 25 0
    endloop
endfacet
facet normal 1 -0 0
    outer loop
        vertex 25 -25 5
        vertex 25 -25 0
        vertex 25 -0 5
    endloop
endfacet
facet normal 0 1 0
    outer loop
        vertex 25 25 5
        vertex 25 25 0
        vertex -25 25 5
    endloop
endfacet
facet normal 0 1 0
    outer loop
        vertex -25 25 5
        vertex 25 25 0
        vertex -25 25 0
    endloop
endfacet
facet normal -1 -0 -0
    outer loop
        vertex -25 -0 5
        vertex -25 25 0
        vertex -25 -25 5
    endloop
endfacet
facet normal -1 0 0
    outer loop
        vertex -25 -25 5
        vertex -25 25 0
        vertex -25 -25 0
    endloop
endfacet
facet normal -1 -0 -0
    outer loop
        vertex -25 25 5
        vertex -25 25 0
        vertex -25 -0 5
    endloop
endfacet
facet normal 0 -1 0
    outer loop
        vertex -25 -25 5
        vertex -25 -25 0
        vertex 25 -25 5
    endloop
endfacet
facet normal 0 -1 -0
    outer loop
        vertex 25 -25 5
        vertex -25 -25 0
        vertex 25 -25 0
    endloop
endfacet
facet normal 0 0 -1
    outer loop
        vertex -25 -25 0
        vertex -25 25 0
        vertex 25 -25 0
    endloop
endfacet
facet normal 0 0 -1
    outer loop
        vertex -25 25 0
        vertex 25 25 0
        vertex 25 -25 0
    endloop
endfacet
facet normal 0 -0 1
    outer loop
        vertex -20 5 5
        vertex 20 5 5
        vertex -25 25 5
    endloop
endfacet
facet normal -0 0 1
    outer loop
        vertex -20 -5 5
        vertex -25 -25 5
        vertex 20 -5 5
    endloop
endfacet
facet normal 0 0 1
    outer loop
        vertex 20 -5 5
        vertex -25 -25 5
        vertex 25 -25 5
    endloop
endfacet
facet normal 0 0 1
    outer loop
        vertex -25 -0 5
        vertex -20 5 5
        vertex -25 25 5
    endloop
endfacet
facet normal 0 -0 1
    outer loop
        vertex 20 5 5
        vertex 25 25 5
        vertex -25 25 5
    endloop
endfacet
facet normal 0 0 1
    outer loop
        vertex -25 -25 5
        vertex -20 -5 5
        vertex -25 -0 5
    endloop
endfacet
facet normal 0 0 1
    outer loop
        vertex 25 -0 5
        vertex 20 -5 5
        vertex 25 -25 5
    endloop
endfacet
facet normal 0 0 1
    outer loop
        vertex 20 5 5
        vertex 20 -5 5
        vertex 25 -0 5
    endloop
endfacet
facet normal 0 -0 1
    outer loop
        vertex 25 -0 5
        vertex 25 25 5
        vertex 20 5 5
    endloop
endfacet
facet normal -0 0 1
    outer loop
        vertex -25 -0 5
        vertex -20 -5 5
        vertex -20 5 5
    endloop
endfacet
facet normal 1 -0 0
    outer loop
        vertex 20 -5 118.75
        vertex 20 5 5
        vertex 20 -5 135
    endloop
endfacet
facet normal 1 0 0
    outer loop
        vertex 20 -5 135
        vertex 20 5 5
        vertex 20 5 70
    endloop
endfacet
facet normal 1 0 0
    outer loop
        vertex 20 -5 135
        vertex 20 5 70
        vertex 20 5 102.5
    endloop
endfacet
facet normal 1 0 0
    outer loop
        vertex 20 -5 135
        vertex 20 5 102.5
        vertex 20 5 118.75
    endloop
endfacet
facet normal 1 -0 0
    outer loop
        vertex 20 -5 135
        vertex 20 5 118.75
        vertex 20 5 135
    endloop
endfacet
facet normal 1 0 0
    outer loop
        vertex 20 -5 5
        vertex 20 5 5
        vertex 20 -5 70
    endloop
endfacet
facet normal 1 -0 0
    outer loop
        vertex 20 -5 70
        vertex 20 5 5
        vertex 20 -5 102.5
    endloop
endfacet
facet normal 1 -0 0
    outer loop
        vertex 20 -5 102.5
        vertex 20 5 5
        vertex 20 -5 118.75
    endloop
endfacet
facet normal 0 -0 1
    outer loop
        vertex 20 -5 135
        vertex 20 5 135
        vertex -20 -5 135
    endloop
endfacet
facet normal 0 0 1
    outer loop
        vertex -20 -5 135
        vertex 20 5 135
        vertex -20 5 135
    endloop
endfacet
facet normal -1 0 0
    outer loop
        vertex -20 -5 70
        vertex -20 5 135
        vertex -20 -5 5
    endloop
endfacet
facet normal -1 0 0
    outer loop
        vertex -20 -5 5
        vertex -20 5 135
        vertex -20 5 118.75
    endloop
endfacet
facet normal -1 0 0
    outer loop
        vertex -20 -5 5
        vertex -20 5 70
        vertex -20 5 5
    endloop
endfacet
facet normal -1 0 0
    outer loop
        vertex -20 -5 5
        vertex -20 5 102.5
        vertex -20 5 70
    endloop
endfacet
facet normal -1 0 0
    outer loop
        vertex -20 -5 5
        vertex -20 5 118.75
        vertex -20 5 102.5
    endloop
endfacet
facet normal -1 0 0
    outer loop
        vertex -20 -5 102.5
        vertex -20 5 135
        vertex -20 -5 70
    endloop
endfacet
facet normal -1 0 0
    outer loop
        vertex -20 -5 118.75
        vertex -20 5 135
        vertex -20 -5 102.5
    endloop
endfacet
facet normal -1 0 0
    outer loop
        vertex -20 -5 135
        vertex -20 5 135
        vertex -20 -5 118.75
    endloop
endfacet
facet normal 0 1 0
    outer loop
        vertex -20 5 102.5
        vertex -20 5 118.75
        vertex -19.5 5 110
    endloop
endfacet
facet normal 0 1 0
    outer loop
        vertex -20 5 102.5
        vertex -19.5 5 110
        vertex -19.46157 5 109.60982
    endloop
endfacet
facet normal 0 1 0
    outer loop
        vertex 20 5 118.75
        vertex 19.5 5 110
        vertex 19.46157 5 110.39018
    endloop
endfacet
facet normal 0 1 0
    outer loop
        vertex 15.53843 5 109.60982
        vertex 15.652241 5 109.234634
        vertex 4.9039264 5 109.02454
    endloop
endfacet
facet normal 0 1 0
    outer loop
        vertex 15.53843 5 109.60982
        vertex 5 5 110
        vertex 15.5 5 110
    endloop
endfacet
facet normal 0 1 0
    outer loop
        vertex 15.652241 5 109.234634
        vertex 4.6193976 5 108.086586
        vertex 4.9039264 5 109.02454
    endloop
endfacet
facet normal 0 1 0
    outer loop
        vertex 15.83706 5 108.888855
        vertex 4.6193976 5 108.086586
        vertex 15.652241 5 109.234634
    endloop
endfacet
facet normal 0 1 0
    outer loop
        vertex 16.085787 5 108.58579
        vertex 4.157348 5 107.222145
        vertex 15.83706 5 108.888855
    endloop
endfacet
facet normal 0 1 0
    outer loop
        vertex 16.388859 5 108.33706
        vertex 4.157348 5 107.222145
        vertex 16.085787 5 108.58579
    endloop
endfacet
facet normal -0 1 0
    outer loop
        vertex 4.157348 5 107.222145
        vertex 16.388859 5 108.33706
        vertex 3.535534 5 106.46447
    endloop
endfacet
facet normal 0 1 0
    outer loop
        vertex 16.388859 5 108.33706
        vertex 16.734634 5 108.15224
        vertex 20 5 102.5
    endloop
endfacet
facet normal 0 1 0
    outer loop
        vertex 20 5 102.5
        vertex 17.10982 5 108.03843
        vertex 17.5 5 108
    endloop
endfacet
facet normal 0 1 0
    outer loop
        vertex 16.734634 5 108.15224
        vertex 17.10982 5 108.03843
        vertex 20 5 102.5
    endloop
endfacet
facet normal 0 1 0
    outer loop
        vertex 20 5 102.5
        vertex 17.5 5 108
        vertex 17.89018 5 108.03843
    endloop
endfacet
facet normal 0 1 0
    outer loop
        vertex 20 5 102.5
        vertex 17.89018 5 108.03843
        vertex 18.265366 5 108.15224
    endloop
endfacet
facet normal 0 1 0
    outer loop
        vertex 20 5 102.5
        vertex 18.265366 5 108.15224
        vertex 18.611141 5 108.33706
    endloop
endfacet
facet normal -0 1 0
    outer loop
        vertex 18.611141 5 108.33706
        vertex 18.914213 5 108.58579
        vertex 20 5 102.5
    endloop
endfacet
facet normal -0 1 0
    outer loop
        vertex 18.914213 5 108.58579
        vertex 19.16294 5 108.888855
        vertex 20 5 102.5
    endloop
endfacet
facet normal -0 1 0
    outer loop
        vertex 19.5 5 110
        vertex 20 5 118.75
        vertex 20 5 102.5
    endloop
endfacet
facet normal 0 1 0
    outer loop
        vertex 19.5 5 110
        vertex 20 5 102.5
        vertex 19.46157 5 109.60982
    endloop
endfacet
facet normal 0 1 0
    outer loop
        vertex 1.9134171 5 114.6194
        vertex 20 5 135
        vertex 20 5 118.75
    endloop
endfacet
facet normal -0 1 0
    outer loop
        vertex 19.34776 5 110.765366
        vertex 20 5 118.75
        vertex 19.46157 5 110.39018
    endloop
endfacet
facet normal -0 1 0
    outer loop
        vertex 19.16294 5 111.111145
        vertex 20 5 118.75
        vertex 19.34776 5 110.765366
    endloop
endfacet
facet normal -0 1 0
    outer loop
        vertex 18.914213 5 111.414215
        vertex 20 5 118.75
        vertex 19.16294 5 111.111145
    endloop
endfacet
facet normal -0 1 0
    outer loop
        vertex 18.611141 5 111.66294
        vertex 20 5 118.75
        vertex 18.914213 5 111.414215
    endloop
endfacet
facet normal -0 1 0
    outer loop
        vertex 18.265366 5 111.847755
        vertex 20 5 118.75
        vertex 18.611141 5 111.66294
    endloop
endfacet
facet normal -0 1 0
    outer loop
        vertex 17.89018 5 111.96157
        vertex 20 5 118.75
        vertex 18.265366 5 111.847755
    endloop
endfacet
facet normal 0 1 0
    outer loop
        vertex 20 5 118.75
        vertex 17.89018 5 111.96157
        vertex 17.5 5 112
    endloop
endfacet
facet normal 0 1 0
    outer loop
        vertex 20 5 118.75
        vertex 17.5 5 112
        vertex 17.10982 5 111.96157
    endloop
endfacet
facet normal 0 1 0
    outer loop
        vertex 20 5 118.75
        vertex 17.10982 5 111.96157
        vertex 16.734634 5 111.847755
    endloop
endfacet
facet normal 0 0.99999994 0
    outer loop
        vertex 20 5 118.75
        vertex 3.535534 5 113.53553
        vertex 2.777851 5 114.15735
    endloop
endfacet
facet normal 0 0.99999994 -0
    outer loop
        vertex 4.157348 5 112.777855
        vertex 3.535534 5 113.53553
        vertex 20 5 118.75
    endloop
endfacet
facet normal 0 0.99999994 0
    outer loop
        vertex 16.388859 5 111.66294
        vertex 16.085787 5 111.414215
        vertex 4.157348 5 112.777855
    endloop
endfacet
facet normal 0 1 0
    outer loop
        vertex 3.535534 5 106.46447
        vertex 20 5 102.5
        vertex 2.777851 5 105.84265
    endloop
endfacet
facet normal 0 1 0
    outer loop
        vertex 4.6193976 5 111.91342
        vertex 15.83706 5 111.111145
        vertex 15.652241 5 110.765366
    endloop
endfacet
facet normal 0 1 0
    outer loop
        vertex 4.157348 5 112.777855
        vertex 15.83706 5 111.111145
        vertex 4.6193976 5 111.91342
    endloop
endfacet
facet normal -0 1 0
    outer loop
        vertex 3.535534 5 106.46447
        vertex 16.388859 5 108.33706
        vertex 20 5 102.5
    endloop
endfacet
facet normal 0 1 0
    outer loop
        vertex 20 5 70
        vertex -20 5 5
        vertex -20 5 70
    endloop
endfacet
facet normal 0 1 0
    outer loop
        vertex -20 5 70
        vertex -20 5 102.5
        vertex -1.9134171 5 105.3806
    endloop
endfacet
facet normal 0 0.99999994 0
    outer loop
        vertex -19.34776 5 109.234634
        vertex -19.16294 5 108.888855
        vertex -20 5 102.5
    endloop
endfacet
facet normal 0 1 0
    outer loop
        vertex -19.16294 5 108.888855
        vertex -18.914213 5 108.58579
        vertex -20 5 102.5
    endloop
endfacet
facet normal 0 1 0
    outer loop
        vertex -18.914213 5 108.58579
        vertex -18.611141 5 108.33706
        vertex -20 5 102.5
    endloop
endfacet
facet normal 0 1 0
    outer loop
        vertex -18.611141 5 108.33706
        vertex -18.265366 5 108.15224
        vertex -20 5 102.5
    endloop
endfacet
facet normal 0 1 0
    outer loop
        vertex -18.265366 5 108.15224
        vertex -17.89018 5 108.03843
        vertex -20 5 102.5
    endloop
endfacet
facet normal 0 1 0
    outer loop
        vertex 0 5 105
        vertex 20 5 70
        vertex -20 5 70
    endloop
endfacet
facet normal 0 1 0
    outer loop
        vertex -17.5 5 108
        vertex -20 5 102.5
        vertex -17.89018 5 108.03843
    endloop
endfacet
facet normal 0 1 0
    outer loop
        vertex -17.10982 5 108.03843
        vertex -20 5 102.5
        vertex -17.5 5 108
    endloop
endfacet
facet normal 0 1 0
    outer loop
        vertex -2.777851 5 105.84265
        vertex -20 5 102.5
        vertex -3.535534 5 106.46447
    endloop
endfacet
facet normal -0 1 0
    outer loop
        vertex -17.10982 5 108.03843
        vertex -16.734634 5 108.15224
        vertex -20 5 102.5
    endloop
endfacet
facet normal 0 1 0
    outer loop
        vertex -16.388859 5 108.33706
        vertex -3.535534 5 106.46447
        vertex -20 5 102.5
    endloop
endfacet
facet normal -0 1 0
    outer loop
        vertex -16.388859 5 108.33706
        vertex -16.085787 5 108.58579
        vertex -4.157348 5 107.222145
    endloop
endfacet
facet normal 0 1 0
    outer loop
        vertex -16.388859 5 108.33706
        vertex -20 5 102.5
        vertex -16.734634 5 108.15224
    endloop
endfacet
facet normal 0 1 0
    outer loop
        vertex -15.83706 5 108.888855
        vertex -4.6193976 5 108.086586
        vertex -4.157348 5 107.222145
    endloop
endfacet
facet normal 0 1 0
    outer loop
        vertex -15.652241 5 109.234634
        vertex -4.6193976 5 108.086586
        vertex -15.83706 5 108.888855
    endloop
endfacet
facet normal 0 1 0
    outer loop
        vertex -15.53843 5 109.60982
        vertex -4.9039264 5 109.02454
        vertex -15.652241 5 109.234634
    endloop
endfacet
facet normal 0 1 0
    outer loop
        vertex -5 5 110
        vertex -4.9039264 5 109.02454
        vertex -15.53843 5 109.60982
    endloop
endfacet
facet normal 0 1 0
    outer loop
        vertex -15.53843 5 110.39018
        vertex -5 5 110
        vertex -15.5 5 110
    endloop
endfacet
facet normal 0 1 0
    outer loop
        vertex -4.9039264 5 110.97545
        vertex -5 5 110
        vertex -15.53843 5 110.39018
    endloop
endfacet
facet normal 0 1 0
    outer loop
        vertex -15.83706 5 111.111145
        vertex -4.157348 5 112.777855
        vertex -4.6193976 5 111.91342
    endloop
endfacet
facet normal -0 1 0
    outer loop
        vertex -15.83706 5 111.111145
        vertex -4.6193976 5 111.91342
        vertex -15.652241 5 110.765366
    endloop
endfacet
facet normal 0 1 -0
    outer loop
        vertex -16.085787 5 111.414215
        vertex -16.388859 5 111.66294
        vertex -4.157348 5 112.777855
    endloop
endfacet
facet normal 0 1 -0
    outer loop
        vertex -2.777851 5 114.15735
        vertex -20 5 118.75
        vertex -1.9134171 5 114.6194
    endloop
endfacet
facet normal 0 1 -0
    outer loop
        vertex -17.89018 5 111.96157
        vertex -20 5 118.75
        vertex -17.5 5 112
    endloop
endfacet
facet normal 0 1 0
    outer loop
        vertex -20 5 118.75
        vertex -17.10982 5 111.96157
        vertex -17.5 5 112
    endloop
endfacet
facet normal 0 1 -0
    outer loop
        vertex -18.265366 5 111.847755
        vertex -20 5 118.75
        vertex -17.89018 5 111.96157
    endloop
endfacet
facet normal 0 1 -0
    outer loop
        vertex -18.611141 5 111.66294
        vertex -20 5 118.75
        vertex -18.265366 5 111.847755
    endloop
endfacet
facet normal 0 1 0
    outer loop
        vertex -20 5 118.75
        vertex -18.611141 5 111.66294
        vertex -18.914213 5 111.414215
    endloop
endfacet
facet normal 0 1 0
    outer loop
        vertex -20 5 118.75
        vertex -18.914213 5 111.414215
        vertex -19.16294 5 111.111145
    endloop
endfacet
facet normal 0 0.99999994 0
    outer loop
        vertex -20 5 118.75
        vertex -19.16294 5 111.111145
        vertex -19.34776 5 110.765366
    endloop
endfacet
facet normal 0 1 0
    outer loop
        vertex -4.9039264 5 110.97545
        vertex -15.53843 5 110.39018
        vertex -15.652241 5 110.765366
    endloop
endfacet
facet normal 0 1 0
    outer loop
        vertex -16.388859 5 108.33706
        vertex -4.157348 5 107.222145
        vertex -3.535534 5 106.46447
    endloop
endfacet
facet normal 0 1 0
    outer loop
        vertex -0.9754516 5 114.90393
        vertex -1.9134171 5 114.6194
        vertex -20 5 135
    endloop
endfacet
facet normal 0 1 -0
    outer loop
        vertex -0.9754516 5 114.90393
        vertex -20 5 135
        vertex 0 5 115
    endloop
endfacet
facet normal 0 1 0
    outer loop
        vertex -1.9134171 5 114.6194
        vertex -20 5 118.75
        vertex -20 5 135
    endloop
endfacet
facet normal -0 1 -0
    outer loop
        vertex -16.734634 5 111.847755
        vertex -20 5 118.75
        vertex -16.388859 5 111.66294
    endloop
endfacet
facet normal 0 1 -0
    outer loop
        vertex -19.46157 5 110.39018
        vertex -20 5 118.75
        vertex -19.34776 5 110.765366
    endloop
endfacet
facet normal 0 1 0
    outer loop
        vertex -20 5 118.75
        vertex -16.734634 5 111.847755
        vertex -17.10982 5 111.96157
    endloop
endfacet
facet normal 0 1 0
    outer loop
        vertex -2.777851 5 114.15735
        vertex -3.535534 5 113.53553
        vertex -20 5 118.75
    endloop
endfacet
facet normal 0 1 -0
    outer loop
        vertex -16.388859 5 111.66294
        vertex -20 5 118.75
        vertex -4.157348 5 112.777855
    endloop
endfacet
facet normal 0 1 0
    outer loop
        vertex -20 5 118.75
        vertex -3.535534 5 113.53553
        vertex -4.157348 5 112.777855
    endloop
endfacet
facet normal -0 1 0
    outer loop
        vertex -16.085787 5 111.414215
        vertex -4.157348 5 112.777855
        vertex -15.83706 5 111.111145
    endloop
endfacet
facet normal 0 1 0
    outer loop
        vertex -5 5 110
        vertex -15.53843 5 109.60982
        vertex -15.5 5 110
    endloop
endfacet
facet normal 0 1 0
    outer loop
        vertex -15.652241 5 110.765366
        vertex -4.6193976 5 111.91342
        vertex -4.9039264 5 110.97545
    endloop
endfacet
facet normal 0 1 0
    outer loop
        vertex -4.9039264 5 109.02454
        vertex -4.6193976 5 108.086586
        vertex -15.652241 5 109.234634
    endloop
endfacet
facet normal 0 1 0
    outer loop
        vertex -15.83706 5 108.888855
        vertex -4.157348 5 107.222145
        vertex -16.085787 5 108.58579
    endloop
endfacet
facet normal 0 1 0
    outer loop
        vertex -1.9134171 5 105.3806
        vertex -20 5 102.5
        vertex -2.777851 5 105.84265
    endloop
endfacet
facet normal 0 1 0
    outer loop
        vertex -0.9754516 5 105.09607
        vertex -20 5 70
        vertex -1.9134171 5 105.3806
    endloop
endfacet
facet normal 0 1 0
    outer loop
        vertex 20 5 70
        vertex 20 5 5
        vertex -20 5 5
    endloop
endfacet
facet normal 0 1 0
    outer loop
        vertex -0.9754516 5 105.09607
        vertex 0 5 105
        vertex -20 5 70
    endloop
endfacet
facet normal -0 1 0
    outer loop
        vertex 0 5 105
        vertex 0.9754516 5 105.09607
        vertex 20 5 70
    endloop
endfacet
facet normal 0 0.99999994 0
    outer loop
        vertex 19.34776 5 109.234634
        vertex 20 5 102.5
        vertex 19.16294 5 108.888855
    endloop
endfacet
facet normal 0 1 0
    outer loop
        vertex -20 5 118.75
        vertex -19.46157 5 110.39018
        vertex -19.5 5 110
    endloop
endfacet
facet normal 0 1 0
    outer loop
        vertex 20 5 102.5
        vertex 1.9134171 5 105.3806
        vertex 2.777851 5 105.84265
    endloop
endfacet
facet normal 0 1 0
    outer loop
        vertex 15.83706 5 108.888855
        vertex 4.157348 5 107.222145
        vertex 4.6193976 5 108.086586
    endloop
endfacet
facet normal -0 1 0
    outer loop
        vertex 19.34776 5 109.234634
        vertex 19.46157 5 109.60982
        vertex 20 5 102.5
    endloop
endfacet
facet normal 0 1 0
    outer loop
        vertex 4.9039264 5 110.97545
        vertex 15.53843 5 110.39018
        vertex 5 5 110
    endloop
endfacet
facet normal 0 1 0
    outer loop
        vertex 15.53843 5 110.39018
        vertex 15.5 5 110
        vertex 5 5 110
    endloop
endfacet
facet normal 0 1 0
    outer loop
        vertex 15.652241 5 110.765366
        vertex 15.53843 5 110.39018
        vertex 4.9039264 5 110.97545
    endloop
endfacet
facet normal 0 1 0
    outer loop
        vertex 15.652241 5 110.765366
        vertex 4.9039264 5 110.97545
        vertex 4.6193976 5 111.91342
    endloop
endfacet
facet normal 0 1 0
    outer loop
        vertex 20 5 118.75
        vertex 16.734634 5 111.847755
        vertex 16.388859 5 111.66294
    endloop
endfacet
facet normal 0 1 -0
    outer loop
        vertex 2.777851 5 114.15735
        vertex 1.9134171 5 114.6194
        vertex 20 5 118.75
    endloop
endfacet
facet normal 0 1 -0
    outer loop
        vertex 1.9134171 5 114.6194
        vertex 0.9754516 5 114.90393
        vertex 20 5 135
    endloop
endfacet
facet normal 0 1 -0
    outer loop
        vertex 20 5 70
        vertex 1.9134171 5 105.3806
        vertex 20 5 102.5
    endloop
endfacet
facet normal 0 1 -0
    outer loop
        vertex 0 5 115
        vertex -20 5 135
        vertex 20 5 135
    endloop
endfacet
facet normal -0 1 0
    outer loop
        vertex 0 5 115
        vertex 20 5 135
        vertex 0.9754516 5 114.90393
    endloop
endfacet
facet normal 0 1 0
    outer loop
        vertex 5 5 110
        vertex 15.53843 5 109.60982
        vertex 4.9039264 5 109.02454
    endloop
endfacet
facet normal 0 1 0
    outer loop
        vertex -19.34776 5 109.234634
        vertex -20 5 102.5
        vertex -19.46157 5 109.60982
    endloop
endfacet
facet normal -0 1 0
    outer loop
        vertex 0.9754516 5 105.09607
        vertex 1.9134171 5 105.3806
        vertex 20 5 70
    endloop
endfacet
facet normal 0 1 -0
    outer loop
        vertex 16.388859 5 111.66294
        vertex 4.157348 5 112.777855
        vertex 20 5 118.75
    endloop
endfacet
facet normal 0 0.99999994 0
    outer loop
        vertex 4.157348 5 112.777855
        vertex 16.085787 5 111.414215
        vertex 15.83706 5 111.111145
    endloop
endfacet
facet normal 0 -1 0
    outer loop
        vertex -20 -5 102.5
        vertex -19.5 -5 110
        vertex -20 -5 118.75
    endloop
endfacet
facet normal 0 -1 0
    outer loop
        vertex -20 -5 102.5
        vertex -19.46157 -5 109.60982
        vertex -19.5 -5 110
    endloop
endfacet
facet normal 0 -1 0
    outer loop
        vertex 20 -5 118.75
        vertex 19.46157 -5 110.39018
        vertex 19.5 -5 110
    endloop
endfacet
facet normal -0 -1 0
    outer loop
        vertex 17.10982 -5 111.96157
        vertex 20 -5 118.75
        vertex 16.734634 -5 111.847755
    endloop
endfacet
facet normal 0 -1 0
    outer loop
        vertex 17.10982 -5 111.96157
        vertex 17.5 -5 112
        vertex 20 -5 118.75
    endloop
endfacet
facet normal 0 -1 0
    outer loop
        vertex 3.535534 -5 113.53553
        vertex 20 -5 118.75
        vertex 2.777851 -5 114.15735
    endloop
endfacet
facet normal 0 -1 0
    outer loop
        vertex 16.388859 -5 111.66294
        vertex 20 -5 118.75
        vertex 4.157348 -5 112.777855
    endloop
endfacet
facet normal 0 -1 0
    outer loop
        vertex 16.085787 -5 111.414215
        vertex 16.388859 -5 111.66294
        vertex 4.157348 -5 112.777855
    endloop
endfacet
facet normal 0 -1 0
    outer loop
        vertex 15.83706 -5 111.111145
        vertex 16.085787 -5 111.414215
        vertex 4.157348 -5 112.777855
    endloop
endfacet
facet normal 0 -1 0
    outer loop
        vertex 15.652241 -5 110.765366
        vertex 15.83706 -5 111.111145
        vertex 4.6193976 -5 111.91342
    endloop
endfacet
facet normal 0 -1 0
    outer loop
        vertex 4.9039264 -5 110.97545
        vertex 15.652241 -5 110.765366
        vertex 4.6193976 -5 111.91342
    endloop
endfacet
facet normal 0 -1 0
    outer loop
        vertex 5 -5 110
        vertex 15.53843 -5 110.39018
        vertex 4.9039264 -5 110.97545
    endloop
endfacet
facet normal 0 -1 0
    outer loop
        vertex 5 -5 110
        vertex 15.5 -5 110
        vertex 15.53843 -5 110.39018
    endloop
endfacet
facet normal -0 -1 -0
    outer loop
        vertex 15.5 -5 110
        vertex 5 -5 110
        vertex 15.53843 -5 109.60982
    endloop
endfacet
facet normal 0 -1 -0
    outer loop
        vertex 15.53843 -5 109.60982
        vertex 4.9039264 -5 109.02454
        vertex 15.652241 -5 109.234634
    endloop
endfacet
facet normal 0 -1 0
    outer loop
        vertex 15.652241 -5 109.234634
        vertex 4.9039264 -5 109.02454
        vertex 4.6193976 -5 108.086586
    endloop
endfacet
facet normal -0 -1 0
    outer loop
        vertex 15.83706 -5 108.888855
        vertex 15.652241 -5 109.234634
        vertex 4.6193976 -5 108.086586
    endloop
endfacet
facet normal 0 -1 -0
    outer loop
        vertex 16.085787 -5 108.58579
        vertex 4.157348 -5 107.222145
        vertex 16.388859 -5 108.33706
    endloop
endfacet
facet normal 0 -1 0
    outer loop
        vertex 16.388859 -5 108.33706
        vertex 20 -5 102.5
        vertex 16.734634 -5 108.15224
    endloop
endfacet
facet normal 0 -1 0
    outer loop
        vertex 20 -5 102.5
        vertex 17.5 -5 108
        vertex 17.10982 -5 108.03843
    endloop
endfacet
facet normal 0 -1 0
    outer loop
        vertex 16.734634 -5 108.15224
        vertex 20 -5 102.5
        vertex 17.10982 -5 108.03843
    endloop
endfacet
facet normal 0 -1 0
    outer loop
        vertex 20 -5 102.5
        vertex 17.89018 -5 108.03843
        vertex 17.5 -5 108
    endloop
endfacet
facet normal 0 -1 0
    outer loop
        vertex 20 -5 102.5
        vertex 18.265366 -5 108.15224
        vertex 17.89018 -5 108.03843
    endloop
endfacet
facet normal 0 -1 0
    outer loop
        vertex 20 -5 102.5
        vertex 18.611141 -5 108.33706
        vertex 18.265366 -5 108.15224
    endloop
endfacet
facet normal 0 -1 0
    outer loop
        vertex 18.611141 -5 108.33706
        vertex 20 -5 102.5
        vertex 18.914213 -5 108.58579
    endloop
endfacet
facet normal 0 -1 0
    outer loop
        vertex 18.914213 -5 108.58579
        vertex 20 -5 102.5
        vertex 19.16294 -5 108.888855
    endloop
endfacet
facet normal 0 -1 0
    outer loop
        vertex 19.5 -5 110
        vertex 20 -5 102.5
        vertex 20 -5 118.75
    endloop
endfacet
facet normal 0 -1 -0
    outer loop
        vertex 19.5 -5 110
        vertex 19.46157 -5 109.60982
        vertex 20 -5 102.5
    endloop
endfacet
facet normal 0 -1 0
    outer loop
        vertex 1.9134171 -5 114.6194
        vertex 20 -5 118.75
        vertex 20 -5 135
    endloop
endfacet
facet normal 0 -1 0
    outer loop
        vertex 19.34776 -5 110.765366
        vertex 19.46157 -5 110.39018
        vertex 20 -5 118.75
    endloop
endfacet
facet normal 0 -1 0
    outer loop
        vertex 19.16294 -5 111.111145
        vertex 19.34776 -5 110.765366
        vertex 20 -5 118.75
    endloop
endfacet
facet normal 0 -1 0
    outer loop
        vertex 18.914213 -5 111.414215
        vertex 19.16294 -5 111.111145
        vertex 20 -5 118.75
    endloop
endfacet
facet normal 0 -1 0
    outer loop
        vertex 18.611141 -5 111.66294
        vertex 18.914213 -5 111.414215
        vertex 20 -5 118.75
    endloop
endfacet
facet normal 0 -1 0
    outer loop
        vertex 18.265366 -5 111.847755
        vertex 18.611141 -5 111.66294
        vertex 20 -5 118.75
    endloop
endfacet
facet normal 0 -1 0
    outer loop
        vertex 17.89018 -5 111.96157
        vertex 18.265366 -5 111.847755
        vertex 20 -5 118.75
    endloop
endfacet
facet normal 0 -1 -0
    outer loop
        vertex 3.535534 -5 106.46447
        vertex 2.777851 -5 105.84265
        vertex 20 -5 102.5
    endloop
endfacet
facet normal 0 -0.99999994 0
    outer loop
        vertex 3.535534 -5 113.53553
        vertex 4.157348 -5 112.777855
        vertex 20 -5 118.75
    endloop
endfacet
facet normal 0 -1 0
    outer loop
        vertex -17.89018 -5 111.96157
        vertex -17.5 -5 112
        vertex -20 -5 118.75
    endloop
endfacet
facet normal 0 -1 0
    outer loop
        vertex -20 -5 118.75
        vertex -17.5 -5 112
        vertex -17.10982 -5 111.96157
    endloop
endfacet
facet normal 0 -1 0
    outer loop
        vertex -18.265366 -5 111.847755
        vertex -17.89018 -5 111.96157
        vertex -20 -5 118.75
    endloop
endfacet
facet normal 0 -1 0
    outer loop
        vertex -18.611141 -5 111.66294
        vertex -18.265366 -5 111.847755
        vertex -20 -5 118.75
    endloop
endfacet
facet normal 0 -1 0
    outer loop
        vertex -18.914213 -5 111.414215
        vertex -18.611141 -5 111.66294
        vertex -20 -5 118.75
    endloop
endfacet
facet normal 0 -1 0
    outer loop
        vertex -19.16294 -5 111.111145
        vertex -18.914213 -5 111.414215
        vertex -20 -5 118.75
    endloop
endfacet
facet normal 0 -0.99999994 0
    outer loop
        vertex -20 -5 118.75
        vertex -19.34776 -5 110.765366
        vertex -19.16294 -5 111.111145
    endloop
endfacet
facet normal 0 -1 0
    outer loop
        vertex -19.5 -5 110
        vertex -19.46157 -5 110.39018
        vertex -20 -5 118.75
    endloop
endfacet
facet normal -0 -1 0
    outer loop
        vertex 20 -5 70
        vertex -20 -5 70
        vertex -20 -5 5
    endloop
endfacet
facet normal 0 -1 0
    outer loop
        vertex -20 -5 70
        vertex -1.9134171 -5 105.3806
        vertex -20 -5 102.5
    endloop
endfacet
facet normal -0 -1 0
    outer loop
        vertex -19.34776 -5 109.234634
        vertex -19.46157 -5 109.60982
        vertex -20 -5 102.5
    endloop
endfacet
facet normal -0 -0.99999994 0
    outer loop
        vertex -19.16294 -5 108.888855
        vertex -19.34776 -5 109.234634
        vertex -20 -5 102.5
    endloop
endfacet
facet normal -0 -1 0
    outer loop
        vertex -18.914213 -5 108.58579
        vertex -19.16294 -5 108.888855
        vertex -20 -5 102.5
    endloop
endfacet
facet normal -0 -1 0
    outer loop
        vertex -18.611141 -5 108.33706
        vertex -18.914213 -5 108.58579
        vertex -20 -5 102.5
    endloop
endfacet
facet normal -0 -1 0
    outer loop
        vertex -18.265366 -5 108.15224
        vertex -18.611141 -5 108.33706
        vertex -20 -5 102.5
    endloop
endfacet
facet normal -0 -1 0
    outer loop
        vertex -17.89018 -5 108.03843
        vertex -18.265366 -5 108.15224
        vertex -20 -5 102.5
    endloop
endfacet
facet normal 0 -1 0
    outer loop
        vertex -20 -5 118.75
        vertex -19.46157 -5 110.39018
        vertex -19.34776 -5 110.765366
    endloop
endfacet
facet normal 0 -1 -0
    outer loop
        vertex -17.89018 -5 108.03843
        vertex -20 -5 102.5
        vertex -17.5 -5 108
    endloop
endfacet
facet normal 0 -1 0
    outer loop
        vertex -20 -5 102.5
        vertex -2.777851 -5 105.84265
        vertex -3.535534 -5 106.46447
    endloop
endfacet
facet normal 0 -1 -0
    outer loop
        vertex -17.10982 -5 108.03843
        vertex -20 -5 102.5
        vertex -16.734634 -5 108.15224
    endloop
endfacet
facet normal 0 -1 -0
    outer loop
        vertex -16.388859 -5 108.33706
        vertex -20 -5 102.5
        vertex -3.535534 -5 106.46447
    endloop
endfacet
facet normal 0 -1 0
    outer loop
        vertex -16.388859 -5 108.33706
        vertex -16.734634 -5 108.15224
        vertex -20 -5 102.5
    endloop
endfacet
facet normal -0 -1 -0
    outer loop
        vertex -4.157348 -5 107.222145
        vertex -16.388859 -5 108.33706
        vertex -3.535534 -5 106.46447
    endloop
endfacet
facet normal 0 -1 0
    outer loop
        vertex -15.83706 -5 108.888855
        vertex -4.157348 -5 107.222145
        vertex -4.6193976 -5 108.086586
    endloop
endfacet
facet normal 0 -1 -0
    outer loop
        vertex -15.83706 -5 108.888855
        vertex -16.085787 -5 108.58579
        vertex -4.157348 -5 107.222145
    endloop
endfacet
facet normal 0 -1 0
    outer loop
        vertex -15.652241 -5 109.234634
        vertex -4.6193976 -5 108.086586
        vertex -4.9039264 -5 109.02454
    endloop
endfacet
facet normal 0 -1 -0
    outer loop
        vertex -15.53843 -5 109.60982
        vertex -15.652241 -5 109.234634
        vertex -4.9039264 -5 109.02454
    endloop
endfacet
facet normal 0 -1 0
    outer loop
        vertex -4.9039264 -5 109.02454
        vertex -5 -5 110
        vertex -15.53843 -5 109.60982
    endloop
endfacet
facet normal 0 -1 0
    outer loop
        vertex -4.157348 -5 107.222145
        vertex -16.085787 -5 108.58579
        vertex -16.388859 -5 108.33706
    endloop
endfacet
facet normal 0 -1 0
    outer loop
        vertex -15.83706 -5 111.111145
        vertex -4.6193976 -5 111.91342
        vertex -4.157348 -5 112.777855
    endloop
endfacet
facet normal 0 -1 0
    outer loop
        vertex -15.83706 -5 111.111145
        vertex -15.652241 -5 110.765366
        vertex -4.6193976 -5 111.91342
    endloop
endfacet
facet normal 0 -1 0
    outer loop
        vertex -16.085787 -5 111.414215
        vertex -4.157348 -5 112.777855
        vertex -16.388859 -5 111.66294
    endloop
endfacet
facet normal 0 -1 0
    outer loop
        vertex -15.5 -5 110
        vertex -5 -5 110
        vertex -15.53843 -5 110.39018
    endloop
endfacet
facet normal 0 -1 0
    outer loop
        vertex -15.53843 -5 109.60982
        vertex -5 -5 110
        vertex -15.5 -5 110
    endloop
endfacet
facet normal -0 -1 0
    outer loop
        vertex -0.9754516 -5 114.90393
        vertex -20 -5 135
        vertex -1.9134171 -5 114.6194
    endloop
endfacet
facet normal 0 -1 0
    outer loop
        vertex -0.9754516 -5 114.90393
        vertex 0 -5 115
        vertex -20 -5 135
    endloop
endfacet
facet normal 0 -1 0
    outer loop
        vertex -1.9134171 -5 114.6194
        vertex -20 -5 135
        vertex -20 -5 118.75
    endloop
endfacet
facet normal 0 -1 0
    outer loop
        vertex -16.734634 -5 111.847755
        vertex -16.388859 -5 111.66294
        vertex -20 -5 118.75
    endloop
endfacet
facet normal 0 -1 0
    outer loop
        vertex -17.10982 -5 111.96157
        vertex -16.734634 -5 111.847755
        vertex -20 -5 118.75
    endloop
endfacet
facet normal -0 -1 0
    outer loop
        vertex -1.9134171 -5 114.6194
        vertex -20 -5 118.75
        vertex -2.777851 -5 114.15735
    endloop
endfacet
facet normal -0 -1 0
    outer loop
        vertex -2.777851 -5 114.15735
        vertex -20 -5 118.75
        vertex -3.535534 -5 113.53553
    endloop
endfacet
facet normal 0 -1 0
    outer loop
        vertex -16.388859 -5 111.66294
        vertex -4.157348 -5 112.777855
        vertex -20 -5 118.75
    endloop
endfacet
facet normal 0 -1 0
    outer loop
        vertex -20 -5 118.75
        vertex -4.157348 -5 112.777855
        vertex -3.535534 -5 113.53553
    endloop
endfacet
facet normal 0 -1 0
    outer loop
        vertex -16.085787 -5 111.414215
        vertex -15.83706 -5 111.111145
        vertex -4.157348 -5 112.777855
    endloop
endfacet
facet normal 0 -1 0
    outer loop
        vertex -15.53843 -5 110.39018
        vertex -4.9039264 -5 110.97545
        vertex -15.652241 -5 110.765366
    endloop
endfacet
facet normal 0 -1 0
    outer loop
        vertex -15.652241 -5 110.765366
        vertex -4.9039264 -5 110.97545
        vertex -4.6193976 -5 111.91342
    endloop
endfacet
facet normal 0 -1 0
    outer loop
        vertex -15.53843 -5 110.39018
        vertex -5 -5 110
        vertex -4.9039264 -5 110.97545
    endloop
endfacet
facet normal 0 -1 0
    outer loop
        vertex -4.6193976 -5 108.086586
        vertex -15.652241 -5 109.234634
        vertex -15.83706 -5 108.888855
    endloop
endfacet
facet normal -0 -1 0
    outer loop
        vertex -1.9134171 -5 105.3806
        vertex -2.777851 -5 105.84265
        vertex -20 -5 102.5
    endloop
endfacet
facet normal -0 -1 0
    outer loop
        vertex -0.9754516 -5 105.09607
        vertex -1.9134171 -5 105.3806
        vertex -20 -5 70
    endloop
endfacet
facet normal 0 -1 -0
    outer loop
        vertex 20 -5 70
        vertex -20 -5 5
        vertex 20 -5 5
    endloop
endfacet
facet normal 0 -1 -0
    outer loop
        vertex -0.9754516 -5 105.09607
        vertex -20 -5 70
        vertex 0 -5 105
    endloop
endfacet
facet normal 0 -1 0
    outer loop
        vertex 0 -5 105
        vertex 20 -5 70
        vertex 0.9754516 -5 105.09607
    endloop
endfacet
facet normal 0 -0.99999994 -0
    outer loop
        vertex 19.34776 -5 109.234634
        vertex 19.16294 -5 108.888855
        vertex 20 -5 102.5
    endloop
endfacet
facet normal 0 -1 0
    outer loop
        vertex 20 -5 102.5
        vertex 2.777851 -5 105.84265
        vertex 1.9134171 -5 105.3806
    endloop
endfacet
facet normal 0 -1 0
    outer loop
        vertex 3.535534 -5 106.46447
        vertex 20 -5 102.5
        vertex 16.388859 -5 108.33706
    endloop
endfacet
facet normal 0 -1 0
    outer loop
        vertex 19.34776 -5 109.234634
        vertex 20 -5 102.5
        vertex 19.46157 -5 109.60982
    endloop
endfacet
facet normal -0 -1 0
    outer loop
        vertex 15.53843 -5 109.60982
        vertex 5 -5 110
        vertex 4.9039264 -5 109.02454
    endloop
endfacet
facet normal 0 -1 -0
    outer loop
        vertex 4.6193976 -5 108.086586
        vertex 4.157348 -5 107.222145
        vertex 15.83706 -5 108.888855
    endloop
endfacet
facet normal -0 -1 0
    outer loop
        vertex 15.652241 -5 110.765366
        vertex 4.9039264 -5 110.97545
        vertex 15.53843 -5 110.39018
    endloop
endfacet
facet normal 0 -1 0
    outer loop
        vertex 4.157348 -5 112.777855
        vertex 4.6193976 -5 111.91342
        vertex 15.83706 -5 111.111145
    endloop
endfacet
facet normal 0 -1 0
    outer loop
        vertex 20 -5 118.75
        vertex 16.388859 -5 111.66294
        vertex 16.734634 -5 111.847755
    endloop
endfacet
facet normal 0 -1 0
    outer loop
        vertex 2.777851 -5 114.15735
        vertex 20 -5 118.75
        vertex 1.9134171 -5 114.6194
    endloop
endfacet
facet normal 0 -1 0
    outer loop
        vertex 1.9134171 -5 114.6194
        vertex 20 -5 135
        vertex 0.9754516 -5 114.90393
    endloop
endfacet
facet normal 0 -1 0
    outer loop
        vertex 20 -5 70
        vertex 20 -5 102.5
        vertex 1.9134171 -5 105.3806
    endloop
endfacet
facet normal 0 -1 0
    outer loop
        vertex 0 -5 115
        vertex 20 -5 135
        vertex -20 -5 135
    endloop
endfacet
facet normal 0 -1 0
    outer loop
        vertex 0 -5 115
        vertex 0.9754516 -5 114.90393
        vertex 20 -5 135
    endloop
endfacet
facet normal 0 -1 -0
    outer loop
        vertex 4.157348 -5 107.222145
        vertex 3.535534 -5 106.46447
        vertex 16.388859 -5 108.33706
    endloop
endfacet
facet normal 0 -1 0
    outer loop
        vertex -20 -5 102.5
        vertex -17.10982 -5 108.03843
        vertex -17.5 -5 108
    endloop
endfacet
facet normal 0 -1 0
    outer loop
        vertex 0.9754516 -5 105.09607
        vertex 20 -5 70
        vertex 1.9134171 -5 105.3806
    endloop
endfacet
facet normal 0 -1 -0
    outer loop
        vertex 15.83706 -5 108.888855
        vertex 4.157348 -5 107.222145
        vertex 16.085787 -5 108.58579
    endloop
endfacet
facet normal 0 -1 0
    outer loop
        vertex 17.89018 -5 111.96157
        vertex 20 -5 118.75
        vertex 17.5 -5 112
    endloop
endfacet
facet normal 0 -1 -0
    outer loop
        vertex 0 -5 105
        vertex -20 -5 70
        vertex 20 -5 70
    endloop
endfacet
facet normal 0.99518466 0 -0.09801747
    outer loop
        vertex -4.9039264 5 110.97545
        vertex -4.9039264 -5 110.97545
        vertex -5 5 110
    endloop
endfacet
facet normal 0.95694101 0 -0.29028255
    outer loop
        vertex -4.6193976 5 111.91342
        vertex -4.9039264 -5 110.97545
        vertex -4.9039264 5 110.97545
    endloop
endfacet
facet normal 0.88192123 0 -0.47139698
    outer loop
        vertex -4.157348 5 112.777855
        vertex -4.6193976 -5 111.91342
        vertex -4.6193976 5 111.91342
    endloop
endfacet
facet normal 0.88192123 0 -0.47139698
    outer loop
        vertex -4.157348 -5 112.777855
        vertex -4.6193976 -5 111.91342
        vertex -4.157348 5 112.777855
    endloop
endfacet
facet normal 0.77300733 0 -0.63439715
    outer loop
        vertex -3.535534 -5 113.53553
        vertex -4.157348 -5 112.777855
        vertex -3.535534 5 113.53553
    endloop
endfacet
facet normal 0.63439596 0 -0.77300829
    outer loop
        vertex -3.535534 -5 113.53553
        vertex -3.535534 5 113.53553
        vertex -2.777851 5 114.15735
    endloop
endfacet
facet normal 0.47139809 0 -0.88192046
    outer loop
        vertex -2.777851 -5 114.15735
        vertex -2.777851 5 114.15735
        vertex -1.9134171 5 114.6194
    endloop
endfacet
facet normal 0.47139809 0 -0.88192046
    outer loop
        vertex -2.777851 -5 114.15735
        vertex -1.9134171 5 114.6194
        vertex -1.9134171 -5 114.6194
    endloop
endfacet
facet normal 0.29028645 0 -0.95693976
    outer loop
        vertex -1.9134171 -5 114.6194
        vertex -0.9754516 5 114.90393
        vertex -0.9754516 -5 114.90393
    endloop
endfacet
facet normal 0.09801283 0 -0.99518514
    outer loop
        vertex -0.9754516 5 114.90393
        vertex 0 5 115
        vertex -0.9754516 -5 114.90393
    endloop
endfacet
facet normal -0.09801283 -0 -0.99518514
    outer loop
        vertex 0 5 115
        vertex 0.9754516 5 114.90393
        vertex 0 -5 115
    endloop
endfacet
facet normal -0.09801283 -0 -0.99518514
    outer loop
        vertex 0.9754516 5 114.90393
        vertex 0.9754516 -5 114.90393
        vertex 0 -5 115
    endloop
endfacet
facet normal -0.29028645 -0 -0.95693976
    outer loop
        vertex 1.9134171 5 114.6194
        vertex 1.9134171 -5 114.6194
        vertex 0.9754516 -5 114.90393
    endloop
endfacet
facet normal -0.47139809 0 -0.88192046
    outer loop
        vertex 2.777851 5 114.15735
        vertex 1.9134171 -5 114.6194
        vertex 1.9134171 5 114.6194
    endloop
endfacet
facet normal -0.63439596 0 -0.77300829
    outer loop
        vertex 3.535534 5 113.53553
        vertex 2.777851 -5 114.15735
        vertex 2.777851 5 114.15735
    endloop
endfacet
facet normal -0.99518466 0 -0.09801747
    outer loop
        vertex 5 -5 110
        vertex 4.9039264 -5 110.97545
        vertex 5 5 110
    endloop
endfacet
facet normal -0.99518466 0 -0.09801747
    outer loop
        vertex 4.9039264 -5 110.97545
        vertex 4.9039264 5 110.97545
        vertex 5 5 110
    endloop
endfacet
facet normal -0.95694101 0 -0.29028255
    outer loop
        vertex 4.6193976 -5 111.91342
        vertex 4.9039264 5 110.97545
        vertex 4.9039264 -5 110.97545
    endloop
endfacet
facet normal -0.95694101 -0 -0.29028255
    outer loop
        vertex 4.6193976 5 111.91342
        vertex 4.9039264 5 110.97545
        vertex 4.6193976 -5 111.91342
    endloop
endfacet
facet normal -0.88192123 -0 -0.47139698
    outer loop
        vertex 4.6193976 5 111.91342
        vertex 4.6193976 -5 111.91342
        vertex 4.157348 -5 112.777855
    endloop
endfacet
facet normal -0.88192123 0 -0.47139698
    outer loop
        vertex 4.6193976 5 111.91342
        vertex 4.157348 -5 112.777855
        vertex 4.157348 5 112.777855
    endloop
endfacet
facet normal -0.77300733 0 -0.63439715
    outer loop
        vertex 4.157348 -5 112.777855
        vertex 3.535534 -5 113.53553
        vertex 4.157348 5 112.777855
    endloop
endfacet
facet normal -0.77300733 0 -0.63439715
    outer loop
        vertex 3.535534 -5 113.53553
        vertex 3.535534 5 113.53553
        vertex 4.157348 5 112.777855
    endloop
endfacet
facet normal -0.63439596 0 -0.77300829
    outer loop
        vertex 2.777851 -5 114.15735
        vertex 3.535534 5 113.53553
        vertex 3.535534 -5 113.53553
    endloop
endfacet
facet normal -0.47139809 0 -0.88192046
    outer loop
        vertex 1.9134171 -5 114.6194
        vertex 2.777851 5 114.15735
        vertex 2.777851 -5 114.15735
    endloop
endfacet
facet normal -0.29028645 0 -0.95693976
    outer loop
        vertex 0.9754516 -5 114.90393
        vertex 0.9754516 5 114.90393
        vertex 1.9134171 5 114.6194
    endloop
endfacet
facet normal 0.09801283 0 -0.99518514
    outer loop
        vertex 0 -5 115
        vertex -0.9754516 -5 114.90393
        vertex 0 5 115
    endloop
endfacet
facet normal 0.29028645 0 -0.95693976
    outer loop
        vertex -0.9754516 5 114.90393
        vertex -1.9134171 -5 114.6194
        vertex -1.9134171 5 114.6194
    endloop
endfacet
facet normal 0.63439596 0 -0.77300829
    outer loop
        vertex -2.777851 5 114.15735
        vertex -2.777851 -5 114.15735
        vertex -3.535534 -5 113.53553
    endloop
endfacet
facet normal 0.77300733 0 -0.63439715
    outer loop
        vertex -4.157348 5 112.777855
        vertex -3.535534 5 113.53553
        vertex -4.157348 -5 112.777855
    endloop
endfacet
facet normal 0.99518466 0 -0.09801747
    outer loop
        vertex -4.9039264 -5 110.97545
        vertex -5 -5 110
        vertex -5 5 110
    endloop
endfacet
facet normal 0.95694101 0 -0.29028255
    outer loop
        vertex -4.6193976 5 111.91342
        vertex -4.6193976 -5 111.91342
        vertex -4.9039264 -5 110.97545
    endloop
endfacet
facet normal 0.99518484 -0 0.09801672
    outer loop
        vertex -4.9039264 -5 109.02454
        vertex -4.9039264 5 109.02454
        vertex -5 -5 110
    endloop
endfacet
facet normal 0.9569397 0 0.2902869
    outer loop
        vertex -4.6193976 -5 108.086586
        vertex -4.9039264 5 109.02454
        vertex -4.9039264 -5 109.02454
    endloop
endfacet
facet normal 0.88192296 0 0.47139373
    outer loop
        vertex -4.157348 -5 107.222145
        vertex -4.6193976 5 108.086586
        vertex -4.6193976 -5 108.086586
    endloop
endfacet
facet normal 0.88192296 0 0.47139373
    outer loop
        vertex -4.157348 5 107.222145
        vertex -4.6193976 5 108.086586
        vertex -4.157348 -5 107.222145
    endloop
endfacet
facet normal 0.77300733 0 0.63439715
    outer loop
        vertex -3.535534 5 106.46447
        vertex -4.157348 5 107.222145
        vertex -3.535534 -5 106.46447
    endloop
endfacet
facet normal 0.63439596 0 0.77300829
    outer loop
        vertex -3.535534 5 106.46447
        vertex -3.535534 -5 106.46447
        vertex -2.777851 -5 105.84265
    endloop
endfacet
facet normal 0.47139809 0 0.88192046
    outer loop
        vertex -2.777851 5 105.84265
        vertex -2.777851 -5 105.84265
        vertex -1.9134171 -5 105.3806
    endloop
endfacet
facet normal 0.47139809 0 0.88192046
    outer loop
        vertex -2.777851 5 105.84265
        vertex -1.9134171 -5 105.3806
        vertex -1.9134171 5 105.3806
    endloop
endfacet
facet normal 0.29028645 0 0.95693976
    outer loop
        vertex -1.9134171 5 105.3806
        vertex -0.9754516 -5 105.09607
        vertex -0.9754516 5 105.09607
    endloop
endfacet
facet normal 0.09801283 -0 0.99518514
    outer loop
        vertex -0.9754516 -5 105.09607
        vertex 0 -5 105
        vertex -0.9754516 5 105.09607
    endloop
endfacet
facet normal -0.09801283 0 0.99518514
    outer loop
        vertex 0 -5 105
        vertex 0.9754516 -5 105.09607
        vertex 0 5 105
    endloop
endfacet
facet normal -0.09801283 0 0.99518514
    outer loop
        vertex 0.9754516 -5 105.09607
        vertex 0.9754516 5 105.09607
        vertex 0 5 105
    endloop
endfacet
facet normal -0.29028645 0 0.95693976
    outer loop
        vertex 1.9134171 -5 105.3806
        vertex 1.9134171 5 105.3806
        vertex 0.9754516 5 105.09607
    endloop
endfacet
facet normal -0.47139809 0 0.88192046
    outer loop
        vertex 2.777851 -5 105.84265
        vertex 1.9134171 5 105.3806
        vertex 1.9134171 -5 105.3806
    endloop
endfacet
facet normal -0.63439596 0 0.77300829
    outer loop
        vertex 3.535534 -5 106.46447
        vertex 2.777851 5 105.84265
        vertex 2.777851 -5 105.84265
    endloop
endfacet
facet normal -0.99518484 0 0.09801672
    outer loop
        vertex 5 5 110
        vertex 4.9039264 5 109.02454
        vertex 5 -5 110
    endloop
endfacet
facet normal -0.99518484 0 0.09801672
    outer loop
        vertex 4.9039264 5 109.02454
        vertex 4.9039264 -5 109.02454
        vertex 5 -5 110
    endloop
endfacet
facet normal -0.9569397 0 0.2902869
    outer loop
        vertex 4.6193976 5 108.086586
        vertex 4.9039264 -5 109.02454
        vertex 4.9039264 5 109.02454
    endloop
endfacet
facet normal -0.9569397 0 0.2902869
    outer loop
        vertex 4.6193976 -5 108.086586
        vertex 4.9039264 -5 109.02454
        vertex 4.6193976 5 108.086586
    endloop
endfacet
facet normal -0.88192296 0 0.47139373
    outer loop
        vertex 4.6193976 -5 108.086586
        vertex 4.6193976 5 108.086586
        vertex 4.157348 5 107.222145
    endloop
endfacet
facet normal -0.88192296 0 0.47139373
    outer loop
        vertex 4.6193976 -5 108.086586
        vertex 4.157348 5 107.222145
        vertex 4.157348 -5 107.222145
    endloop
endfacet
facet normal -0.77300733 0 0.63439715
    outer loop
        vertex 4.157348 5 107.222145
        vertex 3.535534 5 106.46447
        vertex 4.157348 -5 107.222145
    endloop
endfacet
facet normal -0.77300733 0 0.63439715
    outer loop
        vertex 3.535534 5 106.46447
        vertex 3.535534 -5 106.46447
        vertex 4.157348 -5 107.222145
    endloop
endfacet
facet normal -0.63439596 0 0.77300829
    outer loop
        vertex 2.777851 5 105.84265
        vertex 3.535534 -5 106.46447
        vertex 3.535534 5 106.46447
    endloop
endfacet
facet normal -0.47139809 0 0.88192046
    outer loop
        vertex 1.9134171 5 105.3806
        vertex 2.777851 -5 105.84265
        vertex 2.777851 5 105.84265
    endloop
endfacet
facet normal -0.29028645 0 0.95693976
    outer loop
        vertex 0.9754516 5 105.09607
        vertex 0.9754516 -5 105.09607
        vertex 1.9134171 -5 105.3806
    endloop
endfacet
facet normal 0.09801283 0 0.99518514
    outer loop
        vertex 0 5 105
        vertex -0.9754516 5 105.09607
        vertex 0 -5 105
    endloop
endfacet
facet normal 0.29028645 0 0.95693976
    outer loop
        vertex -0.9754516 -5 105.09607
        vertex -1.9134171 5 105.3806
        vertex -1.9134171 -5 105.3806
    endloop
endfacet
facet normal 0.63439596 -0 0.77300829
    outer loop
        vertex -2.777851 -5 105.84265
        vertex -2.777851 5 105.84265
        vertex -3.535534 5 106.46447
    endloop
endfacet
facet normal 0.77300733 -0 0.63439715
    outer loop
        vertex -4.157348 -5 107.222145
        vertex -3.535534 -5 106.46447
        vertex -4.157348 5 107.222145
    endloop
endfacet
facet normal 0.99518484 0 0.09801672
    outer loop
        vertex -4.9039264 5 109.02454
        vertex -5 5 110
        vertex -5 -5 110
    endloop
endfacet
facet normal 0.9569397 -0 0.2902869
    outer loop
        vertex -4.6193976 -5 108.086586
        vertex -4.6193976 5 108.086586
        vertex -4.9039264 5 109.02454
    endloop
endfacet
facet normal 0.99518478 0 -0.09801622
    outer loop
        vertex -19.46157 5 110.39018
        vertex -19.46157 -5 110.39018
        vertex -19.5 5 110
    endloop
endfacet
facet normal 0.95693964 0 -0.29028687
    outer loop
        vertex -19.34776 5 110.765366
        vertex -19.46157 -5 110.39018
        vertex -19.46157 5 110.39018
    endloop
endfacet
facet normal 0.88192421 0 -0.47139123
    outer loop
        vertex -19.16294 5 111.111145
        vertex -19.34776 -5 110.765366
        vertex -19.34776 5 110.765366
    endloop
endfacet
facet normal 0.88192421 0 -0.47139123
    outer loop
        vertex -19.16294 -5 111.111145
        vertex -19.34776 -5 110.765366
        vertex -19.16294 5 111.111145
    endloop
endfacet
facet normal 0.77300704 0 -0.63439739
    outer loop
        vertex -18.914213 -5 111.414215
        vertex -19.16294 -5 111.111145
        vertex -18.914213 5 111.414215
    endloop
endfacet
facet normal 0.63439506 0 -0.773009
    outer loop
        vertex -18.914213 -5 111.414215
        vertex -18.914213 5 111.414215
        vertex -18.611141 5 111.66294
    endloop
endfacet
facet normal 0.47138393 0 -0.88192809
    outer loop
        vertex -18.611141 -5 111.66294
        vertex -18.611141 5 111.66294
        vertex -18.265366 5 111.847755
    endloop
endfacet
facet normal 0.47138393 0 -0.88192809
    outer loop
        vertex -18.611141 -5 111.66294
        vertex -18.265366 5 111.847755
        vertex -18.265366 -5 111.847755
    endloop
endfacet
facet normal 0.29029444 0 -0.95693731
    outer loop
        vertex -18.265366 -5 111.847755
        vertex -17.89018 5 111.96157
        vertex -17.89018 -5 111.96157
    endloop
endfacet
facet normal 0.0980167 0 -0.99518478
    outer loop
        vertex -17.89018 5 111.96157
        vertex -17.5 5 112
        vertex -17.89018 -5 111.96157
    endloop
endfacet
facet normal -0.0980167 -0 -0.99518478
    outer loop
        vertex -17.5 5 112
        vertex -17.10982 5 111.96157
        vertex -17.5 -5 112
    endloop
endfacet
facet normal -0.0980167 -0 -0.99518478
    outer loop
        vertex -17.10982 5 111.96157
        vertex -17.10982 -5 111.96157
        vertex -17.5 -5 112
    endloop
endfacet
facet normal -0.29029444 -0 -0.95693731
    outer loop
        vertex -16.734634 5 111.847755
        vertex -16.734634 -5 111.847755
        vertex -17.10982 -5 111.96157
    endloop
endfacet
facet normal -0.47138393 0 -0.88192809
    outer loop
        vertex -16.388859 5 111.66294
        vertex -16.734634 -5 111.847755
        vertex -16.734634 5 111.847755
    endloop
endfacet
facet normal -0.63439506 0 -0.773009
    outer loop
        vertex -16.085787 5 111.414215
        vertex -16.388859 -5 111.66294
        vertex -16.388859 5 111.66294
    endloop
endfacet
facet normal -0.99518454 0 -0.09801863
    outer loop
        vertex -15.5 -5 110
        vertex -15.53843 -5 110.39018
        vertex -15.5 5 110
    endloop
endfacet
facet normal -0.99518454 0 -0.09801863
    outer loop
        vertex -15.53843 -5 110.39018
        vertex -15.53843 5 110.39018
        vertex -15.5 5 110
    endloop
endfacet
facet normal -0.95694029 0 -0.29028463
    outer loop
        vertex -15.652241 -5 110.765366
        vertex -15.53843 5 110.39018
        vertex -15.53843 -5 110.39018
    endloop
endfacet
facet normal -0.95694029 -0 -0.29028463
    outer loop
        vertex -15.652241 5 110.765366
        vertex -15.53843 5 110.39018
        vertex -15.652241 -5 110.765366
    endloop
endfacet
facet normal -0.88192528 -0 -0.47138935
    outer loop
        vertex -15.652241 5 110.765366
        vertex -15.652241 -5 110.765366
        vertex -15.83706 -5 111.111145
    endloop
endfacet
facet normal -0.88192528 0 -0.47138935
    outer loop
        vertex -15.652241 5 110.765366
        vertex -15.83706 -5 111.111145
        vertex -15.83706 5 111.111145
    endloop
endfacet
facet normal -0.77300584 0 -0.63439888
    outer loop
        vertex -15.83706 -5 111.111145
        vertex -16.085787 -5 111.414215
        vertex -15.83706 5 111.111145
    endloop
endfacet
facet normal -0.77300584 0 -0.63439888
    outer loop
        vertex -16.085787 -5 111.414215
        vertex -16.085787 5 111.414215
        vertex -15.83706 5 111.111145
    endloop
endfacet
facet normal -0.63439506 0 -0.773009
    outer loop
        vertex -16.388859 -5 111.66294
        vertex -16.085787 5 111.414215
        vertex -16.085787 -5 111.414215
    endloop
endfacet
facet normal -0.47138393 0 -0.88192809
    outer loop
        vertex -16.734634 -5 111.847755
        vertex -16.388859 5 111.66294
        vertex -16.388859 -5 111.66294
    endloop
endfacet
facet normal -0.29029444 0 -0.95693731
    outer loop
        vertex -17.10982 -5 111.96157
        vertex -17.10982 5 111.96157
        vertex -16.734634 5 111.847755
    endloop
endfacet
facet normal 0.0980167 0 -0.99518478
    outer loop
        vertex -17.5 -5 112
        vertex -17.89018 -5 111.96157
        vertex -17.5 5 112
    endloop
endfacet
facet normal 0.29029444 0 -0.95693731
    outer loop
        vertex -17.89018 5 111.96157
        vertex -18.265366 -5 111.847755
        vertex -18.265366 5 111.847755
    endloop
endfacet
facet normal 0.63439506 0 -0.773009
    outer loop
        vertex -18.611141 5 111.66294
        vertex -18.611141 -5 111.66294
        vertex -18.914213 -5 111.414215
    endloop
endfacet
facet normal 0.77300704 0 -0.63439739
    outer loop
        vertex -19.16294 5 111.111145
        vertex -18.914213 5 111.414215
        vertex -19.16294 -5 111.111145
    endloop
endfacet
facet normal 0.99518478 0 -0.09801622
    outer loop
        vertex -19.46157 -5 110.39018
        vertex -19.5 -5 110
        vertex -19.5 5 110
    endloop
endfacet
facet normal 0.95693964 0 -0.29028687
    outer loop
        vertex -19.34776 5 110.765366
        vertex -19.34776 -5 110.765366
        vertex -19.46157 -5 110.39018
    endloop
endfacet
facet normal 0.99518478 -0 0.09801622
    outer loop
        vertex -19.46157 -5 109.60982
        vertex -19.46157 5 109.60982
        vertex -19.5 -5 110
    endloop
endfacet
facet normal 0.95693964 0 0.29028687
    outer loop
        vertex -19.34776 -5 109.234634
        vertex -19.46157 5 109.60982
        vertex -19.46157 -5 109.60982
    endloop
endfacet
facet normal 0.88192421 0 0.47139123
    outer loop
        vertex -19.16294 -5 108.888855
        vertex -19.34776 5 109.234634
        vertex -19.34776 -5 109.234634
    endloop
endfacet
facet normal 0.88192421 0 0.47139123
    outer loop
        vertex -19.16294 5 108.888855
        vertex -19.34776 5 109.234634
        vertex -19.16294 -5 108.888855
    endloop
endfacet
facet normal 0.77299923 0 0.63440698
    outer loop
        vertex -18.914213 5 108.58579
        vertex -19.16294 5 108.888855
        vertex -18.914213 -5 108.58579
    endloop
endfacet
facet normal 0.63440663 0 0.77299947
    outer loop
        vertex -18.914213 5 108.58579
        vertex -18.914213 -5 108.58579
        vertex -18.611141 -5 108.33706
    endloop
endfacet
facet normal 0.47139904 0 0.88191998
    outer loop
        vertex -18.611141 5 108.33706
        vertex -18.611141 -5 108.33706
        vertex -18.265366 -5 108.15224
    endloop
endfacet
facet normal 0.47139904 0 0.88191998
    outer loop
        vertex -18.611141 5 108.33706
        vertex -18.265366 -5 108.15224
        vertex -18.265366 5 108.15224
    endloop
endfacet
facet normal 0.29027662 0 0.9569428
    outer loop
        vertex -18.265366 5 108.15224
        vertex -17.89018 -5 108.03843
        vertex -17.89018 5 108.03843
    endloop
endfacet
facet normal 0.0980167 -0 0.99518478
    outer loop
        vertex -17.89018 -5 108.03843
        vertex -17.5 -5 108
        vertex -17.89018 5 108.03843
    endloop
endfacet
facet normal -0.0980167 0 0.99518478
    outer loop
        vertex -17.5 -5 108
        vertex -17.10982 -5 108.03843
        vertex -17.5 5 108
    endloop
endfacet
facet normal -0.0980167 0 0.99518478
    outer loop
        vertex -17.10982 -5 108.03843
        vertex -17.10982 5 108.03843
        vertex -17.5 5 108
    endloop
endfacet
facet normal -0.29027662 0 0.9569428
    outer loop
        vertex -16.734634 -5 108.15224
        vertex -16.734634 5 108.15224
        vertex -17.10982 5 108.03843
    endloop
endfacet
facet normal -0.47139904 0 0.88191998
    outer loop
        vertex -16.388859 -5 108.33706
        vertex -16.734634 5 108.15224
        vertex -16.734634 -5 108.15224
    endloop
endfacet
facet normal -0.63440663 0 0.77299947
    outer loop
        vertex -16.085787 -5 108.58579
        vertex -16.388859 5 108.33706
        vertex -16.388859 -5 108.33706
    endloop
endfacet
facet normal -0.99518454 0 0.09801863
    outer loop
        vertex -15.5 5 110
        vertex -15.53843 5 109.60982
        vertex -15.5 -5 110
    endloop
endfacet
facet normal -0.99518454 0 0.09801863
    outer loop
        vertex -15.53843 5 109.60982
        vertex -15.53843 -5 109.60982
        vertex -15.5 -5 110
    endloop
endfacet
facet normal -0.95694029 0 0.29028463
    outer loop
        vertex -15.652241 5 109.234634
        vertex -15.53843 -5 109.60982
        vertex -15.53843 5 109.60982
    endloop
endfacet
facet normal -0.95694029 0 0.29028463
    outer loop
        vertex -15.652241 -5 109.234634
        vertex -15.53843 -5 109.60982
        vertex -15.652241 5 109.234634
    endloop
endfacet
facet normal -0.88192528 0 0.47138935
    outer loop
        vertex -15.652241 -5 109.234634
        vertex -15.652241 5 109.234634
        vertex -15.83706 5 108.888855
    endloop
endfacet
facet normal -0.88192528 0 0.47138935
    outer loop
        vertex -15.652241 -5 109.234634
        vertex -15.83706 5 108.888855
        vertex -15.83706 -5 108.888855
    endloop
endfacet
facet normal -0.77299803 0 0.63440841
    outer loop
        vertex -15.83706 5 108.888855
        vertex -16.085787 5 108.58579
        vertex -15.83706 -5 108.888855
    endloop
endfacet
facet normal -0.77299803 0 0.63440841
    outer loop
        vertex -16.085787 5 108.58579
        vertex -16.085787 -5 108.58579
        vertex -15.83706 -5 108.888855
    endloop
endfacet
facet normal -0.63440663 0 0.77299947
    outer loop
        vertex -16.388859 5 108.33706
        vertex -16.085787 -5 108.58579
        vertex -16.085787 5 108.58579
    endloop
endfacet
facet normal -0.47139904 0 0.88191998
    outer loop
        vertex -16.734634 5 108.15224
        vertex -16.388859 -5 108.33706
        vertex -16.388859 5 108.33706
    endloop
endfacet
facet normal -0.29027662 0 0.9569428
    outer loop
        vertex -17.10982 5 108.03843
        vertex -17.10982 -5 108.03843
        vertex -16.734634 -5 108.15224
    endloop
endfacet
facet normal 0.0980167 0 0.99518478
    outer loop
        vertex -17.5 5 108
        vertex -17.89018 5 108.03843
        vertex -17.5 -5 108
    endloop
endfacet
facet normal 0.29027662 0 0.9569428
    outer loop
        vertex -17.89018 -5 108.03843
        vertex -18.265366 5 108.15224
        vertex -18.265366 -5 108.15224
    endloop
endfacet
facet normal 0.63440663 -0 0.77299947
    outer loop
        vertex -18.611141 -5 108.33706
        vertex -18.611141 5 108.33706
        vertex -18.914213 5 108.58579
    endloop
endfacet
facet normal 0.77299923 -0 0.63440698
    outer loop
        vertex -19.16294 -5 108.888855
        vertex -18.914213 -5 108.58579
        vertex -19.16294 5 108.888855
    endloop
endfacet
facet normal 0.99518478 0 0.09801622
    outer loop
        vertex -19.46157 5 109.60982
        vertex -19.5 5 110
        vertex -19.5 -5 110
    endloop
endfacet
facet normal 0.95693964 -0 0.29028687
    outer loop
        vertex -19.34776 -5 109.234634
        vertex -19.34776 5 109.234634
        vertex -19.46157 5 109.60982
    endloop
endfacet
facet normal 0.99518454 0 -0.09801863
    outer loop
        vertex 15.53843 5 110.39018
        vertex 15.53843 -5 110.39018
        vertex 15.5 5 110
    endloop
endfacet
facet normal 0.95694029 0 -0.29028463
    outer loop
        vertex 15.652241 5 110.765366
        vertex 15.53843 -5 110.39018
        vertex 15.53843 5 110.39018
    endloop
endfacet
facet normal 0.88192528 0 -0.47138935
    outer loop
        vertex 15.83706 5 111.111145
        vertex 15.652241 -5 110.765366
        vertex 15.652241 5 110.765366
    endloop
endfacet
facet normal 0.88192528 0 -0.47138935
    outer loop
        vertex 15.83706 -5 111.111145
        vertex 15.652241 -5 110.765366
        vertex 15.83706 5 111.111145
    endloop
endfacet
facet normal 0.77300584 0 -0.63439888
    outer loop
        vertex 16.085787 -5 111.414215
        vertex 15.83706 -5 111.111145
        vertex 16.085787 5 111.414215
    endloop
endfacet
facet normal 0.63439506 0 -0.773009
    outer loop
        vertex 16.085787 -5 111.414215
        vertex 16.085787 5 111.414215
        vertex 16.388859 5 111.66294
    endloop
endfacet
facet normal 0.47138393 0 -0.88192809
    outer loop
        vertex 16.388859 -5 111.66294
        vertex 16.388859 5 111.66294
        vertex 16.734634 5 111.847755
    endloop
endfacet
facet normal 0.47138393 0 -0.88192809
    outer loop
        vertex 16.388859 -5 111.66294
        vertex 16.734634 5 111.847755
        vertex 16.734634 -5 111.847755
    endloop
endfacet
facet normal 0.29029444 0 -0.95693731
    outer loop
        vertex 16.734634 -5 111.847755
        vertex 17.10982 5 111.96157
        vertex 17.10982 -5 111.96157
    endloop
endfacet
facet normal 0.0980167 0 -0.99518478
    outer loop
        vertex 17.10982 5 111.96157
        vertex 17.5 5 112
        vertex 17.10982 -5 111.96157
    endloop
endfacet
facet normal -0.0980167 -0 -0.99518478
    outer loop
        vertex 17.5 5 112
        vertex 17.89018 5 111.96157
        vertex 17.5 -5 112
    endloop
endfacet
facet normal -0.0980167 -0 -0.99518478
    outer loop
        vertex 17.89018 5 111.96157
        vertex 17.89018 -5 111.96157
        vertex 17.5 -5 112
    endloop
endfacet
facet normal -0.29029444 -0 -0.95693731
    outer loop
        vertex 18.265366 5 111.847755
        vertex 18.265366 -5 111.847755
        vertex 17.89018 -5 111.96157
    endloop
endfacet
facet normal -0.47138393 0 -0.88192809
    outer loop
        vertex 18.611141 5 111.66294
        vertex 18.265366 -5 111.847755
        vertex 18.265366 5 111.847755
    endloop
endfacet
facet normal -0.63439506 0 -0.773009
    outer loop
        vertex 18.914213 5 111.414215
        vertex 18.611141 -5 111.66294
        vertex 18.611141 5 111.66294
    endloop
endfacet
facet normal -0.99518478 0 -0.09801622
    outer loop
        vertex 19.5 -5 110
        vertex 19.46157 -5 110.39018
        vertex 19.5 5 110
    endloop
endfacet
facet normal -0.99518478 0 -0.09801622
    outer loop
        vertex 19.46157 -5 110.39018
        vertex 19.46157 5 110.39018
        vertex 19.5 5 110
    endloop
endfacet
facet normal -0.95693964 0 -0.29028687
    outer loop
        vertex 19.34776 -5 110.765366
        vertex 19.46157 5 110.39018
        vertex 19.46157 -5 110.39018
    endloop
endfacet
facet normal -0.95693964 -0 -0.29028687
    outer loop
        vertex 19.34776 5 110.765366
        vertex 19.46157 5 110.39018
        vertex 19.34776 -5 110.765366
    endloop
endfacet
facet normal -0.88192421 -0 -0.47139123
    outer loop
        vertex 19.34776 5 110.765366
        vertex 19.34776 -5 110.765366
        vertex 19.16294 -5 111.111145
    endloop
endfacet
facet normal -0.88192421 0 -0.47139123
    outer loop
        vertex 19.34776 5 110.765366
        vertex 19.16294 -5 111.111145
        vertex 19.16294 5 111.111145
    endloop
endfacet
facet normal -0.77300704 0 -0.63439739
    outer loop
        vertex 19.16294 -5 111.111145
        vertex 18.914213 -5 111.414215
        vertex 19.16294 5 111.111145
    endloop
endfacet
facet normal -0.77300704 0 -0.63439739
    outer loop
        vertex 18.914213 -5 111.414215
        vertex 18.914213 5 111.414215
        vertex 19.16294 5 111.111145
    endloop
endfacet
facet normal -0.63439506 0 -0.773009
    outer loop
        vertex 18.611141 -5 111.66294
        vertex 18.914213 5 111.414215
        vertex 18.914213 -5 111.414215
    endloop
endfacet
facet normal -0.47138393 0 -0.88192809
    outer loop
        vertex 18.265366 -5 111.847755
        vertex 18.611141 5 111.66294
        vertex 18.611141 -5 111.66294
    endloop
endfacet
facet normal -0.29029444 0 -0.95693731
    outer loop
        vertex 17.89018 -5 111.96157
        vertex 17.89018 5 111.96157
        vertex 18.265366 5 111.847755
    endloop
endfacet
facet normal 0.0980167 0 -0.99518478
    outer loop
        vertex 17.5 -5 112
        vertex 17.10982 -5 111.96157
        vertex 17.5 5 112
    endloop
endfacet
facet normal 0.29029444 0 -0.95693731
    outer loop
        vertex 17.10982 5 111.96157
        vertex 16.734634 -5 111.847755
        vertex 16.734634 5 111.847755
    endloop
endfacet
facet normal 0.63439506 0 -0.773009
    outer loop
        vertex 16.388859 5 111.66294
        vertex 16.388859 -5 111.66294
        vertex 16.085787 -5 111.414215
    endloop
endfacet
facet normal 0.77300584 0 -0.63439888
    outer loop
        vertex 15.83706 5 111.111145
        vertex 16.085787 5 111.414215
        vertex 15.83706 -5 111.111145
    endloop
endfacet
facet normal 0.99518454 0 -0.09801863
    outer loop
        vertex 15.53843 -5 110.39018
        vertex 15.5 -5 110
        vertex 15.5 5 110
    endloop
endfacet
facet normal 0.95694029 0 -0.29028463
    outer loop
        vertex 15.652241 5 110.765366
        vertex 15.652241 -5 110.765366
        vertex 15.53843 -5 110.39018
    endloop
endfacet
facet normal 0.99518454 -0 0.09801863
    outer loop
        vertex 15.53843 -5 109.60982
        vertex 15.53843 5 109.60982
        vertex 15.5 -5 110
    endloop
endfacet
facet normal 0.95694029 0 0.29028463
    outer loop
        vertex 15.652241 -5 109.234634
        vertex 15.53843 5 109.60982
        vertex 15.53843 -5 109.60982
    endloop
endfacet
facet normal 0.88192528 0 0.47138935
    outer loop
        vertex 15.83706 -5 108.888855
        vertex 15.652241 5 109.234634
        vertex 15.652241 -5 109.234634
    endloop
endfacet
facet normal 0.88192528 0 0.47138935
    outer loop
        vertex 15.83706 5 108.888855
        vertex 15.652241 5 109.234634
        vertex 15.83706 -5 108.888855
    endloop
endfacet
facet normal 0.77299803 0 0.63440841
    outer loop
        vertex 16.085787 5 108.58579
        vertex 15.83706 5 108.888855
        vertex 16.085787 -5 108.58579
    endloop
endfacet
facet normal 0.63440663 0 0.77299947
    outer loop
        vertex 16.085787 5 108.58579
        vertex 16.085787 -5 108.58579
        vertex 16.388859 -5 108.33706
    endloop
endfacet
facet normal 0.47139904 0 0.88191998
    outer loop
        vertex 16.388859 5 108.33706
        vertex 16.388859 -5 108.33706
        vertex 16.734634 -5 108.15224
    endloop
endfacet
facet normal 0.47139904 0 0.88191998
    outer loop
        vertex 16.388859 5 108.33706
        vertex 16.734634 -5 108.15224
        vertex 16.734634 5 108.15224
    endloop
endfacet
facet normal 0.29027662 0 0.9569428
    outer loop
        vertex 16.734634 5 108.15224
        vertex 17.10982 -5 108.03843
        vertex 17.10982 5 108.03843
    endloop
endfacet
facet normal 0.0980167 -0 0.99518478
    outer loop
        vertex 17.10982 -5 108.03843
        vertex 17.5 -5 108
        vertex 17.10982 5 108.03843
    endloop
endfacet
facet normal -0.0980167 0 0.99518478
    outer loop
        vertex 17.5 -5 108
        vertex 17.89018 -5 108.03843
        vertex 17.5 5 108
    endloop
endfacet
facet normal -0.0980167 0 0.99518478
    outer loop
        vertex 17.89018 -5 108.03843
        vertex 17.89018 5 108.03843
        vertex 17.5 5 108
    endloop
endfacet
facet normal -0.29027662 0 0.9569428
    outer loop
        vertex 18.265366 -5 108.15224
        vertex 18.265366 5 108.15224
        vertex 17.89018 5 108.03843
    endloop
endfacet
facet normal -0.47139904 0 0.88191998
    outer loop
        vertex 18.611141 -5 108.33706
        vertex 18.265366 5 108.15224
        vertex 18.265366 -5 108.15224
    endloop
endfacet
facet normal -0.63440663 0 0.77299947
    outer loop
        vertex 18.914213 -5 108.58579
        vertex 18.611141 5 108.33706
        vertex 18.611141 -5 108.33706
    endloop
endfacet
facet normal -0.99518478 0 0.09801622
    outer loop
        vertex 19.5 5 110
        vertex 19.46157 5 109.60982
        vertex 19.5 -5 110
    endloop
endfacet
facet normal -0.99518478 0 0.09801622
    outer loop
        vertex 19.46157 5 109.60982
        vertex 19.46157 -5 109.60982
        vertex 19.5 -5 110
    endloop
endfacet
facet normal -0.95693964 0 0.29028687
    outer loop
        vertex 19.34776 5 109.234634
        vertex 19.46157 -5 109.60982
        vertex 19.46157 5 109.60982
    endloop
endfacet
facet normal -0.95693964 0 0.29028687
    outer loop
        vertex 19.34776 -5 109.234634
        vertex 19.46157 -5 109.60982
        vertex 19.34776 5 109.234634
    endloop
endfacet
facet normal -0.88192421 0 0.47139123
    outer loop
        vertex 19.34776 -5 109.234634
        vertex 19.34776 5 109.234634
        vertex 19.16294 5 108.888855
    endloop
endfacet
facet normal -0.88192421 0 0.47139123
    outer loop
        vertex 19.34776 -5 109.234634
        vertex 19.16294 5 108.888855
        vertex 19.16294 -5 108.888855
    endloop
endfacet
facet normal -0.77299923 0 0.63440698
    outer loop
        vertex 19.16294 5 108.888855
        vertex 18.914213 5 108.58579
        vertex 19.16294 -5 108.888855
    endloop
endfacet
facet normal -0.77299923 0 0.63440698
    outer loop
        vertex 18.914213 5 108.58579
        vertex 18.914213 -5 108.58579
        vertex 19.16294 -5 108.888855
    endloop
endfacet
facet normal -0.63440663 0 0.77299947
    outer loop
        vertex 18.611141 5 108.33706
        vertex 18.914213 -5 108.58579
        vertex 18.914213 5 108.58579
    endloop
endfacet
facet normal -0.47139904 0 0.88191998
    outer loop
        vertex 18.265366 5 108.15224
        vertex 18.611141 -5 108.33706
        vertex 18.611141 5 108.33706
    endloop
endfacet
facet normal -0.29027662 0 0.9569428
    outer loop
        vertex 17.89018 5 108.03843
        vertex 17.89018 -5 108.03843
        vertex 18.265366 -5 108.15224
    endloop
endfacet
facet normal 0.0980167 0 0.99518478
    outer loop
        vertex 17.5 5 108
        vertex 17.10982 5 108.03843
        vertex 17.5 -5 108
    endloop
endfacet
facet normal 0.29027662 0 0.9569428
    outer loop
        vertex 17.10982 -5 108.03843
        vertex 16.734634 5 108.15224
        vertex 16.734634 -5 108.15224
    endloop
endfacet
facet normal 0.63440663 -0 0.77299947
    outer loop
        vertex 16.388859 -5 108.33706
        vertex 16.388859 5 108.33706
        vertex 16.085787 5 108.58579
    endloop
endfacet
facet normal 0.77299803 -0 0.63440841
    outer loop
        vertex 15.83706 -5 108.888855
        vertex 16.085787 -5 108.58579
        vertex 15.83706 5 108.888855
    endloop
endfacet
facet normal 0.99518454 0 0.09801863
    outer loop
        vertex 15.53843 5 109.60982
        vertex 15.5 5 110
        vertex 15.5 -5 110
    endloop
endfacet
facet normal 0.95694029 -0 0.29028463
    outer loop
        vertex 15.652241 -5 109.234634
        vertex 15.652241 5 109.234634
        vertex 15.53843 5 109.60982
    endloop
endfacet
endsolid unnamed
